<?xml version="1.0" encoding="utf-8"?>
<!-- Generator: Adobe Illustrator 26.0.3, SVG Export Plug-In . SVG Version: 6.00 Build 0)  -->
<svg version="1.1" id="Слой_1" xmlns="http://www.w3.org/2000/svg" xmlns:xlink="http://www.w3.org/1999/xlink" x="0px" y="0px"
	 viewBox="0 0 200 143" style="enable-background:new 0 0 200 143;" xml:space="preserve">
<style type="text/css">
	.st0{fill:#F6A03D;stroke:#5D3614;stroke-width:0.75;stroke-miterlimit:10;}
	.st1{fill:#1F1F1D;}
	.st2{fill:none;stroke:#B16316;stroke-miterlimit:10;}
</style>
<g>
	<path class="st0" d="M196.6,104.8c-2.9-9.9-6.6-24.1-7-32.7c-0.2-3.9,0.1-7.8,0.9-11.6c1-4.7,2.8-13.4,6.1-28.9
		C200.9,11.1,189.7,4,181.4,2c-18.6-4.5-28.5,27.7-38.6,24c-6.8-2.5-10.1-8.8-18.8-14.3c-12-7.6-24-8.5-32.6-9.1
		c-21-1.6-38,4.8-46.6,9c-2.5,1.2-4.4,2.3-5.4,2.9C13.7,29.5,3.6,52.7,0.8,59.9c0.9,7.6,3.9,22.8,14.9,37.7
		c1.1,1.5,5.4,7.1,12.3,13.3c0.9,0.8,1.8,1.6,2.8,2.4c0.7,0.6,1.4,1.1,2.1,1.7c0.1,0.1,0.2,0.2,0.3,0.3c8.9,6.8,20.8,13,34.8,13.7
		c33.8,1.7,48.6-27.9,68.3-21.1c26.7,9.2,21.9,34.1,42.9,32.7C197.2,139.3,201.6,121.9,196.6,104.8z"/>
	<circle class="st1" cx="31.5" cy="46.9" r="3.8"/>
	<path class="st2" d="M50.6,9.1c18,32.9,16.8,83.2-17,105.8"/>
	<path class="st2" d="M23.4,62.1C17,67.6,5.2,68.2,1,59.7"/>
</g>
</svg>
