<?xml version="1.0" encoding="utf-8"?>
<!-- Generator: Adobe Illustrator 26.0.3, SVG Export Plug-In . SVG Version: 6.00 Build 0)  -->
<svg version="1.1" id="Слой_1" xmlns="http://www.w3.org/2000/svg" xmlns:xlink="http://www.w3.org/1999/xlink" x="0px" y="0px"
	 viewBox="0 0 340 270" style="enable-background:new 0 0 340 270;" xml:space="preserve">
<style type="text/css">
	.st0{fill:#535B83;stroke:#1E1E1C;stroke-width:0.5;stroke-miterlimit:10;}
	.st1{fill:#F6A03C;stroke:#5D3511;stroke-width:0.75;stroke-miterlimit:10;}
	.st2{fill:#1E1E1C;}
	.st3{fill:none;stroke:#B06216;stroke-miterlimit:10;}
	.st4{fill:#7682BF;stroke:#1E1E1C;stroke-width:0.5;stroke-miterlimit:10;}
	.st5{fill:#694616;stroke:#573213;stroke-width:0.75;stroke-miterlimit:10;}
	.st6{fill:#A56397;}
	.st7{fill:#FFFFFF;}
	.st8{font-family:'MicrosoftSansSerif';}
	.st9{font-size:34.565px;}
</style>
<g id="Слой_1_00000050644634352580794180000008663439504277895606_">
</g>
<g id="Слой_2_00000064319350198262513060000011198031106125640639_">
	<g>
		<ellipse class="st0" cx="171.1" cy="129.4" rx="163.4" ry="47.6"/>
		<g>
			<path class="st1" d="M180.9,179.4c0.4-10.3,1.4-25,3.7-33.3c1-3.7,2.6-7.3,4.5-10.7c2.4-4.2,6.9-11.8,14.9-25.5
				c10.5-18.1,2.2-28.4-5-32.9c-16.2-10.2-35.8,17.3-44.2,10.6c-5.7-4.5-6.8-11.5-13.4-19.5c-9-11-20.1-15.6-28.1-18.9
				c-19.4-8.1-37.5-7.4-47.1-6.1c-2.8,0.4-4.9,0.8-6,1c-29.2,6.1-46,25-51,30.9c-1.5,7.5-3.5,22.9,2.3,40.5
				c0.6,1.7,2.9,8.5,7.5,16.5c0.6,1,1.2,2.1,1.9,3.2c0.5,0.8,1,1.5,1.5,2.3c0.1,0.1,0.2,0.2,0.2,0.3c6.3,9.2,15.6,18.9,28.7,24
				c31.5,12.3,54.9-11.2,71.5,1.5c22.4,17.2,10.1,39.2,30.4,44.5C170.6,212.4,180.3,197.3,180.9,179.4z"/>
			<circle class="st2" cx="42.4" cy="72.4" r="3.8"/>
			<path class="st3" d="M72.5,42.6c6.8,36.9-10.2,84.3-49.4,95.1"/>
			<path class="st3" d="M30,84.3c-7.8,3.2-19.2,0-20.5-9.3"/>
		</g>
		<g>
			<path class="st1" d="M172.2,236.5c5.8-8.5,14.4-20.4,20.8-26.2c2.9-2.6,6.1-4.8,9.5-6.6c4.3-2.2,12.1-6.3,26.2-13.7
				c18.5-9.7,16.9-22.9,13.2-30.6c-8.4-17.2-39.5-4.4-43-14.5c-2.4-6.9,0.4-13.4-0.9-23.6c-1.8-14.1-8.7-23.9-13.7-31
				c-12.2-17.2-27.9-26.2-36.6-30.2c-2.6-1.2-4.5-1.9-5.6-2.3c-28-10.3-52.3-3.3-59.6-0.9c-5.3,5.6-15.1,17.5-19.6,35.5
				c-0.4,1.8-2.1,8.7-2.4,17.9c0,1.2-0.1,2.4-0.1,3.7c0,0.9,0,1.8,0.1,2.7c0,0.1,0,0.3,0,0.4c0.5,11.2,3.2,24.3,11.5,35.5
				c20.2,27.2,52.5,19.7,59.8,39.2c9.9,26.5-12.3,38.6,2.1,53.9C145.9,258.9,162.1,251.2,172.2,236.5z"/>
			<circle class="st2" cx="111.7" cy="72.2" r="3.8"/>
			<path class="st3" d="M153,62.9c-13.9,34.9-53.4,66-92.4,54.3"/>
			<path class="st3" d="M94.9,75.7c-8.3-1.4-16.3-10.2-12.4-18.8"/>
		</g>
		<g>
			<path class="st1" d="M175.1,182.1c10,2.2,24.4,5.8,32.1,9.5c3.5,1.7,6.8,3.8,9.7,6.3c3.7,3.1,10.4,8.9,22.5,19.2
				c15.9,13.5,27.6,7.1,33.3,0.8c12.9-14.2-10.7-38.2-2.6-45.3c5.5-4.8,12.6-4.7,21.6-9.7c12.4-6.9,18.9-17,23.6-24.3
				c11.4-17.7,13.9-35.7,14.3-45.3c0.1-2.8,0.1-4.9,0.1-6.1c-0.9-29.8-16.5-49.7-21.5-55.6c-7.2-2.8-21.9-7.5-40.3-4.9
				c-1.8,0.2-8.8,1.3-17.5,4.4c-1.1,0.4-2.3,0.9-3.5,1.3c-0.8,0.3-1.7,0.7-2.5,1.1c-0.1,0.1-0.2,0.1-0.4,0.2
				c-10.2,4.6-21.3,12-28.7,24c-17.7,28.8,1.3,56-14.1,70.1c-20.9,19-40.4,3-49.2,22.1C144.6,166.1,157.7,178.3,175.1,182.1z"/>
			<circle class="st2" cx="304.9" cy="64.7" r="3.8"/>
			<path class="st3" d="M329,99.5c-37.6,0.2-81.2-24.9-84.8-65.4"/>
			<path class="st3" d="M295.4,50.4c-1.8-8.2,3.4-18.9,12.8-18.5"/>
		</g>
		<g>
			<path class="st1" d="M110.5,181.5c10.3,0.4,25,1.4,33.3,3.7c3.7,1,7.3,2.6,10.7,4.5c4.2,2.4,11.8,6.9,25.5,14.9
				c18.1,10.5,28.4,2.2,32.9-5.1c10.2-16.2-17.3-35.8-10.6-44.2c4.5-5.7,11.5-6.8,19.5-13.4c11-9,15.6-20.1,18.9-28.1
				c8.1-19.4,7.4-37.5,6.1-47.1c-0.4-2.8-0.8-4.9-1-6c-6.1-29.2-25-46-30.9-51c-7.5-1.5-22.9-3.5-40.5,2.3
				c-1.7,0.6-8.5,2.9-16.5,7.5c-1,0.6-2.1,1.2-3.2,1.9c-0.8,0.5-1.5,1-2.3,1.5c-0.1,0.1-0.2,0.2-0.3,0.2c-9.2,6.3-18.9,15.6-24,28.7
				c-12.3,31.5,11.2,54.9-1.5,71.5c-17.2,22.4-39.2,10.1-44.5,30.4C77.5,171.1,92.7,180.8,110.5,181.5z"/>
			<circle class="st2" cx="217.5" cy="43" r="3.8"/>
			<path class="st3" d="M247.3,73.1c-36.9,6.8-84.3-10.2-95.1-49.4"/>
			<path class="st3" d="M205.6,30.6c-3.2-7.8,0-19.2,9.3-20.5"/>
		</g>
		<g>
			<path class="st1" d="M107.5,138.7c6.1,8.3,14.5,20.4,17.9,28.3c1.5,3.6,2.6,7.3,3.1,11.2c0.7,4.8,2,13.6,4.3,29.2
				c3.1,20.7,16,23.5,24.5,22.6c19-2.2,17.2-35.8,27.9-35.8c7.3,0,12.5,4.8,22.6,6.9c13.9,3,25.4-0.3,33.8-2.7
				c20.3-5.8,34-17.6,40.6-24.6c2-2,3.3-3.6,4.1-4.5c19-23,20.4-48.2,20.5-56c-3.5-6.8-11.5-20.1-27-30.3c-1.5-1-7.5-4.8-16.1-8.2
				c-1.1-0.4-2.3-0.9-3.5-1.3c-0.8-0.3-1.7-0.6-2.6-0.9c-0.1,0-0.3-0.1-0.4-0.1c-10.7-3.3-24-5-37.4-0.9c-32.3,10-36,43-56.8,43.4
				c-28.2,0.6-32.3-24.4-51.5-15.9C95.1,106.4,97,124.3,107.5,138.7z"/>
			<circle class="st2" cx="282.5" cy="135.9" r="3.8"/>
			<path class="st3" d="M277.7,178c-28.3-24.6-44.6-72.3-20.7-105.1"/>
			<path class="st3" d="M284.8,118.9c4.1-7.4,15-12,21.8-5.5"/>
		</g>
		<path class="st4" d="M334.5,262.8H7.7V128c0,0,111.1,40.3,195.5,33.5c53.3-4.3,97.9-18.9,131.3-33.5
			C334.5,172.9,334.5,217.8,334.5,262.8z"/>
		<path class="st5" d="M170.4,46.9"/>
		<rect x="48.5" y="187.5" class="st6" width="246.5" height="54.5"/>
		<text transform="matrix(1.3058 0 0 1 119.5066 225.0373)" class="st7 st8 st9">Корм</text>
	</g>
</g>
</svg>
