<svg width="216" height="264" viewBox="0 0 216 264" fill="none" xmlns="http://www.w3.org/2000/svg">
<g clip-path="url(#clip0_5_2)">
<path fill-rule="evenodd" clip-rule="evenodd" d="M40.3641 79.7555C40.4869 81.3234 40.9271 82.8465 41.7234 84.2547C40.9845 86.025 40.6332 87.7893 40.6103 89.588C40.5494 89.4995 40.4681 89.3816 40.4071 89.2931C40.1707 86.1075 40.1428 82.9087 40.3641 79.7555Z" fill="#5A3E29"/>
<path fill-rule="evenodd" clip-rule="evenodd" d="M117.905 40.6686C118.158 40.9726 118.449 41.2065 118.809 41.3498C119.316 41.9577 119.936 42.2261 120.711 42.2138C122.518 43.4469 124.355 44.6597 126.231 45.8023C129.201 42.9731 132.434 40.5273 135.961 38.4443C137.752 38.5153 138.321 39.3408 137.689 40.9505C134.98 42.6429 132.555 44.6188 130.421 46.8287C130.126 47.0321 130.021 47.3219 130.136 47.6777C131.594 48.8468 133.101 49.896 134.705 50.8342C137.635 49.3371 140.659 48.1663 143.847 47.3606C144.999 47.9583 145.301 48.8378 144.781 49.9787C143.495 50.3866 142.281 50.9623 141.128 51.6264C140.311 52.1461 139.453 52.6069 138.564 52.9588C143.091 55.9272 147.588 58.916 152.115 61.8844C160.025 67.74 167.876 73.6363 175.638 79.5937C179.998 83.3298 184.142 87.2581 188.14 91.4173C189.209 93.1589 190.582 94.5182 192.276 95.5246C192.622 96.0258 192.947 96.4976 193.292 96.9988C197.153 102.601 201.014 108.203 204.874 113.805C205.423 114.601 205.951 115.368 206.5 116.164C208.202 120.339 209.816 124.576 211.362 128.903C213.695 138.037 213.931 147.224 212.072 156.464C211.207 160.452 209.932 164.287 208.268 168C206.961 170.336 205.674 172.701 204.397 175.016C203.775 175.314 203.534 175.785 203.623 176.42C202.284 177.951 201.097 179.639 200.12 181.443C198.854 182.576 197.849 183.834 197.096 185.267C197.007 185.328 196.889 185.409 196.8 185.47C195.012 187.486 193.173 189.492 191.323 191.419C189.141 193.054 187.19 194.833 185.439 196.779C183.932 197.687 182.547 198.772 181.363 200.023C183.916 206.57 186.893 212.911 190.344 219.056C191.361 221.226 192.663 223.242 194.261 225.055C197.202 227.681 199.948 230.528 202.488 233.518C205.497 238.011 205.605 242.59 202.792 247.225C201.753 248.245 200.573 249.059 199.25 249.666C195.477 250.57 191.92 250.021 188.591 248.096C186.727 247.033 184.919 245.8 183.219 244.406C181.73 242.562 180.096 240.948 178.325 239.516C175.767 236.626 173.613 233.5 171.823 230.081C171.314 228.648 170.597 227.229 169.772 225.841C169.32 224.239 168.542 222.731 167.517 221.307C166.71 219.819 165.961 218.291 165.263 216.772C165.297 215.748 164.975 214.839 164.227 214.006C164.085 213.8 163.963 213.623 163.821 213.417C163.832 212.801 163.575 212.238 163.1 211.739C162.717 212.004 162.303 212.288 161.92 212.553C160.485 213.629 158.928 214.528 157.289 215.309C156.317 215.414 155.398 215.786 154.522 216.346C149.813 218.548 144.93 220.304 139.89 221.646C139.102 221.45 138.309 221.562 137.51 221.982C126.356 224.494 115.384 223.923 104.585 220.319C101.353 218.85 98.1887 217.291 95.0226 215.603C92.0278 213.405 89.0442 211.286 86.031 209.188C85.5119 208.371 84.8379 207.836 84.0183 207.531C78.3713 202.116 73.4603 196.064 69.335 189.383C68.3321 188.117 67.5266 186.759 66.9886 185.347C66.2194 183.093 65.1532 180.915 63.8102 178.84C63.668 178.633 63.546 178.456 63.4038 178.25C63.2998 177.278 62.9283 176.36 62.3685 175.484C62.3642 174.531 62.1514 173.59 61.73 172.663C61.7223 172.146 61.7644 171.639 61.7567 171.122C61.9062 171.15 62.1056 171.186 62.2551 171.214C62.3059 169.961 61.6983 169.206 60.4819 168.957C60.4612 168.232 60.1157 167.73 59.466 167.482C59.4133 165.953 58.9547 164.53 58.0607 163.232C58.2102 163.26 58.4095 163.296 58.559 163.324C58.2818 162.732 58.2131 162.127 58.3825 161.489C57.9156 161.506 57.5353 161.333 57.1826 161.011C56.933 160.27 56.5745 159.56 56.157 158.891C55.9795 158.318 55.7521 157.735 55.4362 157.213C55.2805 156.103 54.966 155.015 54.4929 153.95C53.7383 151.339 52.9043 148.739 51.9411 146.141C49.4953 136.781 47.1584 127.389 44.9101 117.936C43.4991 119.3 41.9349 120.378 40.1877 121.19C38.5331 119.547 38.7204 118.114 40.7201 116.909C41.6037 116.17 42.4577 115.451 43.3209 114.682C43.8908 114.246 44.2116 113.764 44.2426 113.177C43.7231 111.665 43.4416 110.12 43.4276 108.52C43.3793 107.945 43.0358 107.573 42.4673 107.443C40.021 108.694 37.6874 110.172 35.4757 111.826C32.9211 111.151 32.6638 109.894 34.6243 108.064C37.314 106.471 39.8818 104.702 42.2982 102.776C41.5664 98.3659 41.0136 93.9632 40.6103 89.588C40.6331 87.7892 40.9845 86.025 41.7234 84.2547C40.927 82.8465 40.4868 81.3234 40.364 79.7555C40.223 75.6344 40.9992 71.7074 42.6725 67.945C45.1166 63.2166 49.0106 60.4025 54.2752 59.5141C60.192 59.6983 65.5875 61.5898 70.3623 65.1703C73.9892 63.1056 77.5034 60.8143 80.8956 58.346C79.9915 55.7075 79.4841 53.0131 79.4325 50.222C79.4142 39.0148 84.995 33.3422 96.2247 33.2135C103.897 34.4926 111.091 36.9715 117.905 40.6686Z" fill="#492B13"/>
<path fill-rule="evenodd" clip-rule="evenodd" d="M61.9098 64.9071C61.4207 64.7659 61.1845 64.9286 61.1719 65.4156C60.7176 64.9459 60.4501 64.9999 60.3785 65.5276C60.0277 65.3345 59.8835 64.9989 59.9164 64.5414C58.8152 65.3438 57.52 65.8015 56.0602 65.8943C55.215 65.8679 54.781 65.4277 54.7491 64.6234C54.3466 64.292 53.9073 64.1599 53.4017 64.2474C51.3778 65.1639 49.5072 66.366 47.8399 67.863C47.5984 68.3338 47.7203 68.5107 48.2462 68.4526C47.3279 69.5204 46.6901 70.7427 46.4123 72.1083C46.7084 73.2959 46.7054 74.4286 46.4146 75.5858C46.5921 76.1592 46.8785 76.7011 47.283 77.1617C46.8993 77.4261 46.4861 77.7109 46.1024 77.9753C46.832 78.9076 47.4638 79.9508 47.9868 81.0254C47.6625 81.9447 47.5672 82.8802 47.7302 83.8115C47.481 83.7658 47.2318 83.7201 46.9827 83.6744C47.0746 83.1761 46.8898 82.7816 46.4191 82.5407C46.4728 82.8081 46.4766 83.0664 46.5303 83.3338C45.4592 82.1585 45.0827 82.244 45.4417 83.6492C44.8064 83.0432 44.31 83.0809 44.0023 83.7714C43.7464 81.9473 43.6788 80.0804 43.8695 78.2095C44.3423 75.9267 44.7155 73.6256 45.0093 71.3357C48.5383 63.3808 54.1619 61.2447 61.9098 64.9071Z" fill="#B6A392"/>
<path fill-rule="evenodd" clip-rule="evenodd" d="M130.905 52.5837C129.429 54.2962 127.773 55.8725 125.906 57.3329C124.812 57.9564 123.94 58.775 123.26 59.8092C123.046 60.826 123.405 61.5357 124.285 61.9291C124.437 62.0857 124.627 62.1721 124.885 62.168C128.22 59.8695 131.544 57.4917 134.819 55.1048C135.324 55.0173 135.764 55.1494 136.166 55.4809C141.978 59.3032 147.724 63.3452 153.392 67.5275C153.882 68.3642 154.49 69.1196 155.165 69.7845C155.193 69.6351 155.23 69.4358 155.257 69.2863C156.277 70.3233 156.901 71.5454 157.151 72.9821C157.626 73.4813 158.185 73.6612 158.85 73.5512C158.822 73.7007 158.785 73.9 158.758 74.0495C159.125 74.0139 159.44 73.8399 159.745 73.5867C160.409 74.1723 160.897 74.8799 161.167 75.6506C161.998 76.0348 162.701 76.5503 163.327 77.206C164.012 77.1256 164.604 76.8479 165.154 76.3821C166.02 77.8289 167.064 79.1537 168.294 80.3065C168.69 80.2506 169.048 80.2647 169.438 80.3877C171.189 83.1816 173.538 85.3898 176.446 87.0824C176.57 87.3884 176.614 87.7056 176.659 88.0229C177.768 88.4325 178.809 88.9326 179.862 89.512C180.272 90.36 180.464 91.271 180.398 92.1861C181.2 92.5907 182.03 92.9749 182.9 93.289C182.953 92.8609 182.897 92.4644 182.733 92.0994C184.657 94.513 186.905 96.5737 189.436 98.3517C193.958 104.977 198.51 111.581 203.05 118.106C213.496 139.391 211.71 159.54 197.691 178.551C192.679 185.049 186.951 190.823 180.456 195.864C177.665 197.31 175.016 198.961 172.579 200.858C169.906 202.222 167.223 203.636 164.591 205.059C163.458 205.752 162.567 206.67 161.898 207.784C159.151 208.851 156.638 210.322 154.261 212.178C153.557 210.967 152.85 210.889 152.12 211.914C150.239 211.775 148.708 212.395 147.526 213.775C146.151 214.244 144.788 214.792 143.476 215.479C144.262 214.85 144.916 214.095 145.431 213.262C145.281 213.234 145.082 213.198 144.932 213.17C145.336 212.24 145.024 211.977 143.926 212.342C142.287 215.08 139.946 216.737 136.944 217.371C136.972 217.221 137.008 217.022 137.036 216.873C136.111 216.858 135.598 216.429 135.476 215.556C135.205 216.743 134.408 217.292 133.114 217.183C132.25 218.519 131.248 218.644 130.088 217.529C129.241 218.07 128.323 218.442 127.321 218.567C127.075 218.78 126.871 219.051 126.786 219.37C126.286 219.15 125.778 219.108 125.245 219.345C125.416 218.836 125.254 218.6 124.737 218.608C124.37 219.339 124.15 219.273 124.137 218.369C123.419 218.212 122.738 217.855 122.134 217.358C122.07 217.707 122.014 218.006 121.95 218.354C120.961 217.992 120.049 218.186 119.274 218.894C119.08 218.549 118.848 218.274 118.517 218.111C118.547 218.786 118.247 219.297 117.596 219.616C115.006 219.269 112.485 218.833 109.973 218.346C93.1842 212.303 80.2902 201.489 71.2705 185.875C70.6808 184.324 69.9527 182.826 69.016 181.34C64.8009 172.634 61.1687 163.7 58.1288 154.488C55.6008 146.272 53.3494 137.951 51.3952 129.557C50.1685 124.619 49.1502 119.667 48.3406 114.702C52.0004 112.18 55.6713 109.737 59.3626 107.323C59.3743 105.445 58.4696 104.764 56.6484 105.28C53.4531 106.96 50.4001 108.847 47.4892 110.94C47.1947 109.186 46.7119 107.475 46.1202 105.795C49.061 104.377 52.0647 103.177 55.1608 102.174C56.1174 100.34 55.5741 99.2363 53.5716 98.9204C53.0732 98.8289 52.5749 98.7375 52.0766 98.646C51.9401 98.8271 51.8535 99.0172 51.837 99.246C50.8626 99.2217 49.9825 99.5238 49.2171 100.182C49.0008 99.6785 48.6186 99.3766 48.1091 99.2059C46.991 99.5416 46.498 99.142 46.6504 98.0367C47.1212 98.2777 47.2983 98.1556 47.2407 97.6299C47.0095 96.7891 46.7488 95.9686 46.4087 95.1592C47.0458 95.8943 47.6922 96.5795 48.3294 97.3146C48.0774 95.7487 47.6667 94.2053 47.1176 92.7137C45.5022 91.6961 45.1524 90.2411 46.109 88.4077C46.1415 87.2547 45.6151 86.6172 44.5391 86.4455C44.2673 85.5457 44.0951 84.6641 44.0022 83.7714C44.31 83.0809 44.8064 83.0432 45.4416 83.6492C45.0827 82.244 45.4591 82.1585 46.5302 83.3338C46.4765 83.0664 46.4727 82.8081 46.419 82.5407C46.8898 82.7816 47.0746 83.1761 46.9826 83.6744C47.2318 83.7201 47.4809 83.7658 47.7301 83.8115C47.5671 82.8802 47.6625 81.9447 47.9867 81.0255C47.4637 79.9508 46.8319 78.9076 46.1023 77.9753C46.486 77.7109 46.8992 77.4261 47.2829 77.1617C46.8785 76.7012 46.5921 76.1592 46.4145 75.5858C46.7054 74.4286 46.7083 73.2959 46.4123 72.1083C46.6901 70.7427 47.3278 69.5204 48.2462 68.4527C47.7203 68.5107 47.5983 68.3338 47.8398 67.863C49.5072 66.366 51.3777 65.1639 53.4016 64.2474C53.9072 64.1599 54.3465 64.292 54.7491 64.6235C54.781 65.4277 55.2149 65.868 56.0602 65.8943C57.5199 65.8015 58.8151 65.3438 59.9164 64.5414C59.8835 64.9989 60.0276 65.3345 60.3784 65.5276C60.45 64.9999 60.7176 64.9459 61.1719 65.4156C61.1845 64.9286 61.4206 64.7659 61.9097 64.9071C62.6592 65.1734 63.427 65.3401 64.2539 65.466C65.9322 66.7012 67.6788 67.8459 69.4234 68.8614C70.7868 70.966 72.2681 72.9892 73.8381 74.9514C76.2136 75.6191 77.4828 74.7445 77.675 72.3072C77.0316 70.4892 76.1022 68.8249 74.8666 67.2846C75.1618 67.0812 75.4569 66.8778 75.752 66.6744C76.8512 68.3957 78.0481 70.0061 79.3539 71.585C81.8916 71.7931 83.1569 70.6602 83.0796 68.1477C82.2112 66.5718 81.2543 65.0569 80.1793 63.6233C80.4744 63.4199 80.7695 63.2165 81.0647 63.0131C82.0642 64.7161 83.2887 66.1771 84.7585 67.4255C87.1046 68.1135 88.4032 67.2186 88.5954 64.7813C87.3816 62.7041 86.0996 60.7175 84.6791 58.7827C83.3957 54.7096 82.9261 50.554 83.2501 46.2864C84.4938 40.3847 88.1735 37.1965 94.2891 36.7218C99.4255 37.2264 104.363 38.3899 109.101 40.2124C113.717 42.4243 118.275 44.806 122.726 47.3484C123.348 47.7459 123.505 48.2898 123.197 48.9803C121.849 50.5616 120.431 52.1043 118.993 53.6175C118.547 55.7508 119.345 56.5926 121.366 56.1134C123.191 53.8985 125.25 51.9582 127.59 50.3015C128.813 50.9378 129.907 51.7054 130.905 52.5837Z" fill="#B6A79A"/>
<path fill-rule="evenodd" clip-rule="evenodd" d="M69.4235 68.8614C69.8333 69.0139 70.2837 69.2253 70.725 69.4865C75.5489 66.3795 80.3119 63.184 84.9936 59.8706C84.6705 59.528 84.5558 59.1721 84.6792 58.7827C86.0996 60.7175 87.3817 62.7041 88.5955 64.7813C88.4033 67.2186 87.1046 68.1135 84.7586 67.4255C83.2888 66.1771 82.0643 64.7161 81.0648 63.0131C80.7696 63.2165 80.4745 63.4199 80.1793 63.6233C81.2543 65.0569 82.2113 66.5717 83.0797 68.1477C83.1569 70.6602 81.8917 71.7931 79.354 71.585C78.0482 70.0061 76.8513 68.3956 75.7521 66.6744C75.457 66.8778 75.1618 67.0812 74.8667 67.2846C76.1023 68.8248 77.0317 70.4892 77.6751 72.3072C77.4828 74.7445 76.2137 75.6191 73.8381 74.9514C72.2682 72.9892 70.7868 70.966 69.4235 68.8614Z" fill="#6F5D4A"/>
<path fill-rule="evenodd" clip-rule="evenodd" d="M118.809 41.3498C119.642 41.1677 120.282 41.4655 120.711 42.2138C119.965 42.2058 119.345 41.9374 118.809 41.3498Z" fill="#AD967F"/>
<path fill-rule="evenodd" clip-rule="evenodd" d="M44.0022 83.7714C44.0951 84.6641 44.2673 85.5457 44.5391 86.4455C45.6152 86.6172 46.1416 87.2546 46.1091 88.4077C45.1524 90.2411 45.5022 91.6961 47.1176 92.7137C47.6667 94.2053 48.0774 95.7487 48.3294 97.3146C47.6922 96.5795 47.0459 95.8943 46.4087 95.1592C46.7488 95.9685 47.0095 96.7891 47.2408 97.6299C47.2983 98.1556 47.1212 98.2776 46.6505 98.0367C46.498 99.142 46.991 99.5415 48.1092 99.2058C48.6186 99.3766 49.0008 99.6785 49.2171 100.182C49.9825 99.5238 50.8626 99.2217 51.8371 99.246C51.8535 99.0172 51.9401 98.827 52.0766 98.646C52.5749 98.7375 53.0733 98.8289 53.5716 98.9204C51.8632 99.6629 50.0826 100.238 48.23 100.645C47.4496 100.965 46.7301 101.374 46.0624 101.921C45.0344 98.9765 44.5914 95.9333 44.7832 92.8005C44.5481 91.7013 44.2336 90.6134 43.8399 89.5367C43.8109 87.5997 43.8817 85.6809 44.0022 83.7714Z" fill="#B4A090"/>
<path fill-rule="evenodd" clip-rule="evenodd" d="M137.689 40.9505C136.148 42.3163 134.618 43.6323 133.077 44.998C132.576 45.3438 132.103 45.6693 131.602 46.0151C131.218 46.2795 130.805 46.5642 130.421 46.8287C132.555 44.6188 134.98 42.6429 137.689 40.9505Z" fill="#7B6853"/>
<path fill-rule="evenodd" clip-rule="evenodd" d="M70.3416 90.4073C74.2376 87.7224 77.023 88.5426 78.7771 92.8566C78.8215 95.8267 77.4478 97.6866 74.6376 98.536C69.6044 97.6125 68.1724 94.9029 70.3416 90.4073Z" fill="#482A10"/>
<path fill-rule="evenodd" clip-rule="evenodd" d="M86.5554 77.9288C87.2657 77.5698 88.0002 77.4985 88.7883 77.6946C90.096 79.4027 91.4628 81.07 92.8885 82.6967C93.5267 82.1699 94.1741 81.5933 94.7514 80.978C96.1405 80.1512 97.0709 80.5537 97.5019 82.1266C97.257 83.0347 96.9217 83.8746 96.3962 84.6281C95.2064 85.4916 93.8522 85.99 92.3924 86.0827C91.3163 88.5639 89.4254 89.7365 86.729 89.5508C85.5355 87.5032 86.1031 86.2422 88.4613 85.7477C88.7749 85.4447 88.8392 85.0959 88.6452 84.7512C87.9907 82.854 87.1277 80.97 86.0764 79.1287C86.3493 78.7667 86.5022 78.3569 86.5554 77.9288Z" fill="#472B13"/>
<path fill-rule="evenodd" clip-rule="evenodd" d="M110.709 71.2856C110.131 73.8582 108.526 75.5728 105.914 76.3296C102.939 76.1186 101.304 74.5051 101.02 71.4395C102.23 67.2572 104.875 66.0428 108.916 67.7372C109.974 68.7041 110.579 69.8967 110.709 71.2856Z" fill="#492A10"/>
<path fill-rule="evenodd" clip-rule="evenodd" d="M130.905 52.5837C131.313 52.607 131.604 52.8409 131.809 53.2648C129.832 54.6276 127.884 55.9701 125.906 57.3329C127.773 55.8725 129.429 54.2962 130.905 52.5837Z" fill="#79604A"/>
<path fill-rule="evenodd" clip-rule="evenodd" d="M44.2427 113.177C44.2117 113.764 43.8909 114.246 43.3209 114.682C42.4577 115.451 41.6037 116.17 40.7202 116.909C41.7435 115.552 42.898 114.321 44.2427 113.177Z" fill="#9E8872"/>
<path fill-rule="evenodd" clip-rule="evenodd" d="M86.5555 77.9288C86.5022 78.3569 86.3493 78.7667 86.0764 79.1287C87.1277 80.97 87.9907 82.854 88.6453 84.7513C87.5442 82.9008 86.5316 80.9894 85.5781 79.0373C85.79 78.5868 86.1219 78.1841 86.5555 77.9288Z" fill="#8D7761"/>
<path fill-rule="evenodd" clip-rule="evenodd" d="M47.4892 110.94C50.4001 108.847 53.4531 106.96 56.6484 105.28C58.4696 104.764 59.3743 105.445 59.3626 107.323C55.6713 109.737 52.0004 112.18 48.3406 114.702C51.1092 112.402 53.9387 110.192 56.7886 108.01C56.5961 107.099 56.2303 106.568 55.671 106.388C53.544 107.724 51.3967 109.03 49.2697 110.365C48.6683 110.693 48.0945 110.871 47.4892 110.94Z" fill="#503721"/>
<path fill-rule="evenodd" clip-rule="evenodd" d="M124.285 61.9291C127.768 59.5289 131.303 57.267 134.819 55.1048C131.545 57.4917 128.221 59.8695 124.885 62.1679C124.627 62.172 124.437 62.0856 124.285 61.9291Z" fill="#634931"/>
<path fill-rule="evenodd" clip-rule="evenodd" d="M110.709 71.2856C110.893 73.6374 109.864 75.3031 107.602 76.2531C107.03 76.5603 106.455 76.6092 105.914 76.3296C108.526 75.5728 110.131 73.8582 110.709 71.2856Z" fill="#735E48"/>
<path fill-rule="evenodd" clip-rule="evenodd" d="M141.128 51.6264C142.281 50.9623 143.495 50.3866 144.781 49.9787C143.885 51.2051 142.68 51.7309 141.128 51.6264Z" fill="#785F4C"/>
<path fill-rule="evenodd" clip-rule="evenodd" d="M86.729 89.5509C89.4254 89.7365 91.3162 88.5639 92.3924 86.0827C93.8521 85.99 95.2064 85.4916 96.3962 84.6281C94.9519 85.7539 93.9101 87.2112 93.2801 88.95C92.983 89.0243 92.6748 89.0192 92.385 88.9145C92.6579 88.5525 92.8108 88.1427 92.8641 87.7146C91.2112 88.8537 89.4438 89.6369 87.5321 90.0846C87.1538 90.0409 86.9027 89.866 86.729 89.5509Z" fill="#A28F7B"/>
<path fill-rule="evenodd" clip-rule="evenodd" d="M123.621 90.6538C121.83 91.8448 120.12 93.1536 118.512 94.6099C119.151 93.5168 120.042 92.5985 121.204 91.8845C122.001 91.3353 122.8 90.9153 123.621 90.6538Z" fill="#785F4A"/>
<path fill-rule="evenodd" clip-rule="evenodd" d="M104.591 114.206C106.57 116.32 108.344 118.577 109.91 120.977C109.796 121.316 109.661 121.627 109.477 121.928C110.042 122.495 110.578 123.083 111.093 123.641C112.107 127.639 111.236 131.239 108.47 134.363C104.629 138.707 99.874 140.461 94.2355 139.607C93.1851 139.157 92.1347 138.706 91.1342 138.265C85.4532 134.57 82.9105 129.364 83.4469 122.689C85.2781 114.86 90.2216 111.106 98.2866 111.375C99.2983 111.895 100.395 112.096 101.526 111.969C102.716 112.497 103.712 113.246 104.591 114.206Z" fill="#482B12"/>
<path fill-rule="evenodd" clip-rule="evenodd" d="M89.5338 117.624C89.8638 117.093 90.3637 116.618 90.954 116.211C91.9667 115.469 93.0238 115.045 94.1642 114.868C92.5463 115.679 91.0096 116.607 89.5338 117.624Z" fill="#786149"/>
<path fill-rule="evenodd" clip-rule="evenodd" d="M123.621 90.6538C125.833 89.6947 128.153 89.2703 130.559 89.3513C131.911 89.9856 133.358 90.3799 134.851 90.5251C139.911 93.2565 143.005 97.4301 144.132 103.046C143.862 109.538 140.781 114.227 134.849 117.053C127.043 119.433 121.231 117.002 117.396 109.73C114.921 104.434 115.283 99.4006 118.512 94.6099C120.12 93.1536 121.83 91.8448 123.621 90.6538Z" fill="#492C14"/>
<path fill-rule="evenodd" clip-rule="evenodd" d="M121.613 95.9517C126.414 91.9905 131.41 91.7224 136.561 95.2174C143.347 103.674 141.703 110.069 131.729 114.42C128.586 114.977 125.792 114.207 123.395 112.119C119.443 108.406 118.224 103.984 119.668 98.8142C120.429 97.898 121.071 96.934 121.613 95.9517Z" fill="#B4A494"/>
<path fill-rule="evenodd" clip-rule="evenodd" d="M83.447 122.689C82.9106 129.364 85.4533 134.57 91.1343 138.265C90.6286 138.353 90.1893 138.221 89.7868 137.889C88.5995 136.924 87.3919 135.93 86.2139 134.916C84.9851 132.501 83.6972 130.127 82.3799 127.773C82.3073 126.91 82.4637 126.063 82.8396 125.282C82.664 124.838 82.4976 124.343 82.322 123.899C82.4715 123.926 82.6709 123.963 82.8204 123.99C82.7222 123.406 82.9544 122.985 83.447 122.689Z" fill="#A7917E"/>
<path fill-rule="evenodd" clip-rule="evenodd" d="M123.514 96.8157C127.377 93.8928 131.311 93.7906 135.288 96.5293C139.477 101.47 138.976 105.86 133.747 109.768C130.218 112.418 126.846 112.262 123.651 109.332C122.35 108.012 121.422 106.477 120.899 104.706C121.209 102.883 121.47 101.051 121.661 99.18C122.415 98.4427 123 97.6485 123.514 96.8157Z" fill="#917A74"/>
<path fill-rule="evenodd" clip-rule="evenodd" d="M124.937 98.8796C125.404 99.5577 125.892 100.265 126.359 100.943C125.809 101.409 125.178 101.757 124.486 102.016C124.047 101.884 123.685 101.612 123.48 101.188C123.182 99.8712 123.658 99.1085 124.937 98.8796Z" fill="#DC97A1"/>
<path fill-rule="evenodd" clip-rule="evenodd" d="M123.906 103.069C125.916 103.901 126.142 105.05 124.554 106.536C123.229 107.014 122.446 106.51 122.246 105.082C122.491 104.174 123.048 103.53 123.906 103.069Z" fill="#D2969D"/>
<path fill-rule="evenodd" clip-rule="evenodd" d="M131.081 97.689C131.011 99.6078 131.967 100.427 133.851 100.129C134.222 99.6561 134.522 99.1446 134.773 98.624C135.217 100.405 135.67 102.137 136.142 103.769C135.96 102.242 135.144 101.499 133.723 101.522C132.28 101.386 130.833 100.992 129.431 100.348C128.236 100.824 127.323 101.584 126.683 102.677C126.66 103.78 126.696 104.843 126.731 105.905C126.436 106.109 126.141 106.312 125.846 106.516C125.424 106.85 124.986 106.847 124.554 106.536C126.142 105.05 125.916 103.901 123.906 103.069C123.767 102.425 123.619 101.832 123.48 101.188C123.685 101.612 124.047 101.884 124.487 102.016C125.178 101.757 125.809 101.409 126.359 100.943C125.892 100.265 125.404 99.5577 124.937 98.8796C125.995 97.1936 127.507 95.9773 129.456 95.3303C130.004 96.1264 130.533 96.893 131.081 97.689Z" fill="#A8777A"/>
<path fill-rule="evenodd" clip-rule="evenodd" d="M126.504 97.3643C127.434 96.3758 128.406 96.271 129.383 97.1199C130.172 98.707 129.66 99.669 127.835 99.9265C127.207 99.1416 126.767 98.314 126.504 97.3643Z" fill="#D6979D"/>
<path fill-rule="evenodd" clip-rule="evenodd" d="M104.591 114.206C105.139 114.306 105.639 114.527 106.141 114.877C108.841 117.278 110.495 120.183 111.093 123.641C110.578 123.083 110.042 122.495 109.477 121.928C109.661 121.627 109.825 121.296 109.91 120.977C108.344 118.577 106.571 116.32 104.591 114.206Z" fill="#543A24"/>
<path fill-rule="evenodd" clip-rule="evenodd" d="M131.081 97.689C132.655 96.5612 133.912 96.8691 134.773 98.624C134.522 99.1446 134.222 99.6561 133.851 100.129C131.967 100.427 131.011 99.6078 131.081 97.689Z" fill="#D4959E"/>
<path fill-rule="evenodd" clip-rule="evenodd" d="M54.4929 153.95C54.9661 155.015 55.2805 156.103 55.4362 157.213C54.6955 156.202 54.3811 155.114 54.4929 153.95Z" fill="#AA967F"/>
<path fill-rule="evenodd" clip-rule="evenodd" d="M133.723 101.522C133.987 101.905 134.271 102.318 134.536 102.701C133.731 102.734 132.897 102.787 132.054 102.89C132.081 102.74 132.118 102.541 132.145 102.392C130.759 102.086 129.39 102.247 128.076 102.804C127.925 103.343 127.874 103.9 127.902 104.446C128.58 104.545 129.032 104.885 129.259 105.468C128.351 105.224 127.499 105.377 126.731 105.905C126.695 104.843 126.66 103.78 126.683 102.677C127.323 101.584 128.236 100.824 129.431 100.348C130.832 100.992 132.28 101.386 133.723 101.522Z" fill="#DA929D"/>
<path fill-rule="evenodd" clip-rule="evenodd" d="M134.536 102.701C134.8 103.085 135.084 103.497 135.348 103.881C133.397 105.66 131.263 107.175 128.957 108.503C128.34 108.493 127.87 108.252 127.554 107.73C127.306 107.118 127.038 106.477 126.731 105.905C127.499 105.377 128.351 105.224 129.259 105.468C129.032 104.885 128.58 104.545 127.902 104.446C127.874 103.9 127.925 103.343 128.076 102.804C129.39 102.247 130.759 102.086 132.145 102.392C132.118 102.541 132.081 102.74 132.054 102.89C132.897 102.787 133.731 102.734 134.536 102.701Z" fill="#EC8F9F"/>
<path fill-rule="evenodd" clip-rule="evenodd" d="M133.723 101.522C135.144 101.499 135.96 102.242 136.142 103.769C135.991 104.308 135.77 104.808 135.469 105.32C133.457 107.011 131.273 108.516 128.976 109.794C127.136 109.714 126.218 108.825 126.252 107.105C126.807 108.289 127.711 108.97 128.966 109.149C130.863 108.363 132.566 107.234 134.085 105.838C134.613 105.214 135.041 104.571 135.348 103.881C135.084 103.497 134.8 103.085 134.536 102.701C134.271 102.318 133.987 101.905 133.723 101.522Z" fill="#C79497"/>
<path fill-rule="evenodd" clip-rule="evenodd" d="M89.5338 117.624C91.0095 116.607 92.5462 115.679 94.1642 114.868C102.186 114.254 106.883 117.975 108.197 126.071C107.656 131.097 104.932 134.41 100.046 136.037C95.5221 137.242 91.8247 135.919 89.054 132.088C85.5702 127.096 85.7369 122.285 89.5338 117.624Z" fill="#B5A495"/>
<path fill-rule="evenodd" clip-rule="evenodd" d="M101.973 118.619C103.063 119.695 103.34 120.982 102.824 122.381C103.126 123.261 103.416 124.061 103.656 124.852C103.004 123.779 102.313 122.777 101.625 121.903C102.484 120.876 102.371 119.954 101.235 119.128C100.336 118.834 99.4838 118.986 98.7072 119.565C98.0003 119.487 97.3597 119.189 96.8058 118.701C95.41 117.75 94.5004 118.072 94.0382 119.739C93.4126 119.778 92.9994 120.063 92.8576 120.552C92.0051 120.705 91.2561 121.134 90.69 121.829C90.3895 122.34 90.4563 122.816 90.8109 123.267C89.8407 124.197 89.1014 125.272 88.6722 126.481C88.0946 123.748 88.7445 121.343 90.6514 119.246C91.6012 118.287 92.6638 117.555 93.898 117.009C95.3892 117.025 96.8876 116.862 98.3638 116.54C99.8477 116.735 101.061 117.421 101.973 118.619Z" fill="#927B76"/>
<path fill-rule="evenodd" clip-rule="evenodd" d="M92.1798 128.412C91.6781 128.758 91.1521 128.816 90.5928 128.636C88.7868 126.837 89.096 125.58 91.5317 124.945C92.3532 125.379 92.8408 126.087 92.954 127.009C92.9433 127.625 92.652 128.087 92.1798 128.412Z" fill="#D7959F"/>
<path fill-rule="evenodd" clip-rule="evenodd" d="M98.7071 119.565C99.4837 118.986 100.336 118.834 101.235 119.128C102.371 119.954 102.484 120.876 101.625 121.903C100.711 122.663 99.9049 122.567 99.2344 121.594C98.7579 120.965 98.5987 120.292 98.7071 119.565Z" fill="#D1969C"/>
<path fill-rule="evenodd" clip-rule="evenodd" d="M94.0382 119.739C94.223 120.133 94.2196 120.57 94.0575 121.03C94.7552 121.158 95.2869 121.487 95.6638 122.097C96.4331 121.698 97.0805 121.121 97.5266 120.379C97.4376 119.744 97.201 119.212 96.8058 118.701C97.3597 119.189 98.0003 119.487 98.7072 119.565C98.5988 120.292 98.7579 120.965 99.2345 121.594C99.905 122.567 100.712 122.663 101.625 121.903C102.313 122.777 103.004 123.779 103.656 124.852C104.224 125.548 104.294 126.282 103.889 127.084C101.572 129.028 99.0816 130.657 96.4083 132.021C95.8345 132.199 95.2771 132.149 94.7657 131.849C93.8736 130.68 93.0018 129.542 92.1799 128.412C92.6521 128.087 92.9434 127.625 92.9541 127.009C92.8409 126.087 92.3532 125.379 91.5317 124.945C89.0961 125.58 88.7868 126.837 90.5929 128.636C89.9489 128.776 89.5077 128.514 89.1898 127.864C88.7762 127.453 88.6301 126.988 88.6722 126.481C89.1014 125.272 89.8407 124.197 90.8109 123.267C92.2386 125.023 93.2793 124.828 93.8832 122.672C93.6926 121.89 93.3342 121.181 92.8576 120.552C92.9994 120.063 93.4126 119.778 94.0382 119.739Z" fill="#A7787A"/>
<path fill-rule="evenodd" clip-rule="evenodd" d="M94.7249 125.789C94.884 126.462 94.9343 127.166 94.8554 127.873C95.1476 128.802 95.6077 129.659 96.1858 130.435C98.1633 129.072 100.111 127.73 102.089 126.367C101.54 125.571 101.012 124.804 100.463 124.008C99.1772 124.416 97.8447 124.378 96.4861 123.922C95.5025 123.948 94.783 124.357 94.3185 125.199C94.1371 124.367 94.4357 123.726 95.1847 123.297C96.8172 122.129 98.2512 122.315 99.4665 123.825C100.313 123.285 101.168 123.262 102.05 123.784C103.123 124.393 103.524 125.291 103.233 126.448C101.077 128.499 98.6863 130.147 96.0019 131.432C93.1812 130.244 92.7556 128.363 94.7249 125.789Z" fill="#DA959E"/>
<path fill-rule="evenodd" clip-rule="evenodd" d="M96.8057 118.701C97.2009 119.211 97.4375 119.744 97.5265 120.379C97.0804 121.121 96.433 121.698 95.6637 122.097C95.2868 121.487 94.7551 121.158 94.0574 121.03C94.2195 120.57 94.2229 120.133 94.0381 119.739C94.5003 118.072 95.4099 117.75 96.8057 118.701Z" fill="#CE969A"/>
<path fill-rule="evenodd" clip-rule="evenodd" d="M92.8576 120.552C93.3341 121.181 93.6926 121.89 93.8832 122.672C93.2793 124.828 92.2385 125.023 90.8109 123.267C90.4562 122.816 90.3895 122.34 90.69 121.829C91.2561 121.134 92.0051 120.705 92.8576 120.552Z" fill="#D1969A"/>
<path fill-rule="evenodd" clip-rule="evenodd" d="M125.846 106.516C126.141 106.312 126.436 106.109 126.731 105.905C127.038 106.477 127.306 107.118 127.554 107.73C127.87 108.252 128.34 108.493 128.957 108.503C131.263 107.175 133.397 105.66 135.348 103.881C135.041 104.571 134.613 105.214 134.085 105.838C132.566 107.234 130.863 108.363 128.966 109.149C127.711 108.97 126.807 108.289 126.252 107.105C126.11 106.899 125.988 106.722 125.846 106.516Z" fill="#DC969E"/>
<path fill-rule="evenodd" clip-rule="evenodd" d="M101.973 118.619C104.019 119.819 105.179 121.628 105.483 124.028C104.96 128.954 102.294 132.097 97.4242 133.495C93.0083 133.973 90.2665 132.079 89.1897 127.864C89.5076 128.514 89.9488 128.776 90.5928 128.636C91.1521 128.816 91.678 128.758 92.1798 128.412C93.0018 129.542 93.8736 130.68 94.7657 131.849C95.2771 132.149 95.8344 132.199 96.4083 132.021C99.0815 130.657 101.572 129.028 103.889 127.084C104.294 126.282 104.223 125.548 103.656 124.852C103.416 124.061 103.126 123.261 102.824 122.381C103.34 120.982 103.033 119.715 101.973 118.619Z" fill="#8B7B72"/>
<path fill-rule="evenodd" clip-rule="evenodd" d="M94.7248 125.789C94.5826 125.582 94.4607 125.405 94.3185 125.199C94.783 124.357 95.5025 123.948 96.4861 123.922C97.8447 124.378 99.1771 124.416 100.463 124.008C101.012 124.804 101.54 125.571 102.089 126.367C100.111 127.73 98.1633 129.072 96.1858 130.435C95.6076 129.659 95.1476 128.802 94.8554 127.873C94.9343 127.166 94.884 126.462 94.7248 125.789Z" fill="#EC8F9F"/>
<path fill-rule="evenodd" clip-rule="evenodd" d="M56.157 158.891C56.5745 159.56 56.933 160.27 57.1826 161.011C57.5353 161.333 57.9156 161.506 58.3825 161.489C58.2131 162.127 58.2818 162.732 58.559 163.324C58.4095 163.296 58.2102 163.26 58.0606 163.232C58.9547 164.53 59.4133 165.953 59.466 167.482C60.1157 167.73 60.4612 168.232 60.4819 168.957C61.6983 169.206 62.3059 169.961 62.255 171.214C62.1055 171.186 61.9062 171.15 61.7567 171.122C61.7644 171.639 61.7223 172.146 61.73 172.663C62.1514 173.59 62.3642 174.531 62.3685 175.484C59.6744 170.122 57.6038 164.591 56.157 158.891Z" fill="#583D27"/>
<path fill-rule="evenodd" clip-rule="evenodd" d="M153.392 67.5275C167.265 76.6665 179.89 87.4052 191.246 99.714C195.023 104.373 198.396 109.268 201.405 114.456C202.336 115.554 202.881 116.787 203.05 118.106C198.51 111.581 193.958 104.977 189.436 98.3517C186.905 96.5737 184.658 94.513 182.733 92.0994C182.897 92.4644 182.953 92.8609 182.9 93.289C182.03 92.9749 181.2 92.5907 180.399 92.1861C180.464 91.271 180.272 90.36 179.862 89.512C178.809 88.9326 177.768 88.4325 176.659 88.0229C176.614 87.7056 176.57 87.3884 176.446 87.0823C173.538 85.3898 171.189 83.1816 169.438 80.3877C169.048 80.2647 168.69 80.2505 168.294 80.3065C167.064 79.1537 166.02 77.8289 165.154 76.3821C164.604 76.8479 164.012 77.1256 163.327 77.206C162.701 76.5503 161.998 76.0348 161.167 75.6506C160.897 74.8799 160.41 74.1723 159.745 73.5867C159.44 73.8399 159.125 74.0138 158.758 74.0495C158.785 73.9 158.822 73.7007 158.85 73.5512C158.185 73.6611 157.626 73.4813 157.151 72.9821C156.901 71.5454 156.277 70.3233 155.257 69.2863C155.23 69.4357 155.193 69.635 155.165 69.7845C154.49 69.1196 153.882 68.3642 153.392 67.5275Z" fill="#B5A18E"/>
<path fill-rule="evenodd" clip-rule="evenodd" d="M62.3686 175.484C62.9284 176.36 63.2999 177.278 63.4039 178.25C62.7353 177.406 62.3932 176.468 62.3686 175.484Z" fill="#AE9881"/>
<path fill-rule="evenodd" clip-rule="evenodd" d="M188.14 91.4173C188.228 91.3563 188.346 91.2749 188.435 91.2139C188.577 91.4203 188.699 91.5972 188.841 91.8036C190.042 92.9768 191.174 94.2405 192.276 95.5246C190.582 94.5182 189.209 93.159 188.14 91.4173Z" fill="#7F6653"/>
<path fill-rule="evenodd" clip-rule="evenodd" d="M63.8102 178.84C65.1533 180.915 66.2195 183.094 66.9887 185.347C65.6457 183.272 64.5794 181.093 63.8102 178.84Z" fill="#897260"/>
<path fill-rule="evenodd" clip-rule="evenodd" d="M69.0161 181.34C69.9527 182.826 70.6808 184.324 71.2705 185.875C70.1365 184.482 69.4084 182.983 69.0161 181.34Z" fill="#6B543D"/>
<path fill-rule="evenodd" clip-rule="evenodd" d="M191.246 99.714C193.395 101.886 195.37 104.308 197.119 106.973C198.844 109.35 200.293 111.831 201.405 114.456C198.396 109.268 195.023 104.373 191.246 99.714Z" fill="#604830"/>
<path fill-rule="evenodd" clip-rule="evenodd" d="M203.636 110.745C204.923 112.423 205.875 114.246 206.5 116.164C205.951 115.368 205.423 114.601 204.874 113.805C204.471 112.778 204.039 111.771 203.636 110.745Z" fill="#CDBAA6"/>
<path fill-rule="evenodd" clip-rule="evenodd" d="M135.2 160.517C135.555 160.968 135.622 161.444 135.321 161.955C137.017 161.7 138.466 162.223 139.668 163.526C140.832 164.898 141.907 166.332 142.864 167.847C146.081 174.979 144.419 180.778 137.855 185.214C131.897 188.886 126.264 188.419 120.987 183.793C115.358 177.583 114.781 170.936 119.248 163.9C123.877 159.057 129.188 157.92 135.2 160.517Z" fill="#482B13"/>
<path fill-rule="evenodd" clip-rule="evenodd" d="M126.491 163.04C132.723 161.659 137.317 163.841 140.355 169.576C141.126 171.958 141.231 174.321 140.71 176.724C138.162 182.437 133.745 184.872 127.501 184.087C123.865 182.158 121.386 179.256 119.966 175.364C119.185 172.336 119.671 169.566 121.382 166.996C122.99 165.539 124.7 164.231 126.491 163.04Z" fill="#B3A291"/>
<path fill-rule="evenodd" clip-rule="evenodd" d="M126.491 163.04C124.7 164.231 122.99 165.539 121.382 166.996C121.358 166.708 121.463 166.418 121.667 166.147C123.128 164.792 124.742 163.723 126.491 163.04Z" fill="#907967"/>
<path fill-rule="evenodd" clip-rule="evenodd" d="M135.2 160.517C136.897 160.957 138.39 161.797 139.76 163.028C141.114 164.486 142.182 166.099 142.864 167.847C141.907 166.332 140.832 164.898 139.668 163.526C138.466 162.223 137.017 161.7 135.321 161.955C135.622 161.444 135.555 160.968 135.2 160.517Z" fill="#654D3A"/>
<path fill-rule="evenodd" clip-rule="evenodd" d="M171.581 140.663C172.633 141.243 173.53 142.103 174.203 143.205C174.711 143.942 175.11 144.711 175.33 145.472C174.201 143.771 172.955 142.152 171.581 140.663Z" fill="#8C7A61"/>
<path fill-rule="evenodd" clip-rule="evenodd" d="M84.0183 207.531C84.8379 207.836 85.5118 208.371 86.0309 209.188C85.2113 208.883 84.5374 208.347 84.0183 207.531Z" fill="#B9A994"/>
<path fill-rule="evenodd" clip-rule="evenodd" d="M136.09 166.861C139.263 170.328 139.396 173.933 136.549 177.634C131.725 182.699 127.072 182.643 122.533 177.509C122.521 176.734 122.321 176.002 121.904 175.333C120.88 169.994 122.981 166.285 128.199 164.254C131.246 163.938 133.863 164.83 136.09 166.861Z" fill="#8E7B74"/>
<path fill-rule="evenodd" clip-rule="evenodd" d="M124.212 176.787C123.309 176.235 122.76 175.439 122.586 174.428C124.48 172.123 125.578 172.453 125.881 175.419C125.392 175.973 124.843 176.439 124.212 176.787Z" fill="#CE979B"/>
<path fill-rule="evenodd" clip-rule="evenodd" d="M130.018 166.262C131.006 167.191 131.11 168.163 130.26 169.14C128.826 169.649 127.826 169.208 127.159 167.798C127.051 167.263 127.263 166.813 127.785 166.497C128.514 166.038 129.249 165.967 130.018 166.262Z" fill="#D0979D"/>
<path fill-rule="evenodd" clip-rule="evenodd" d="M125.48 168.52C125.991 168.125 126.553 167.867 127.159 167.798C127.826 169.208 128.826 169.649 130.26 169.14C131.11 168.163 131.006 167.191 130.018 166.262C132.828 165.413 134.879 166.304 136.221 168.946C135.728 169.242 135.496 169.663 135.594 170.247C136.091 171.601 136.698 172.922 137.442 174.192C137.396 174.441 137.35 174.691 137.304 174.94C136.371 175.67 135.388 176.391 134.454 177.121C133.362 177.874 132.217 178.359 131.097 178.565C132.82 177.465 134.432 176.267 136.012 174.96C136.517 173.482 136.16 172.206 134.912 171.152C134.305 171.093 133.74 171.221 133.177 171.478C132.926 171.303 132.638 171.328 132.384 171.59C130.087 169.52 128.334 169.945 127.134 172.816C127.186 173.65 127.139 174.465 127.071 175.251C126.514 175.896 126.306 176.605 126.408 177.448C126.144 177.064 125.86 176.652 125.596 176.268C125.184 176.682 124.719 176.829 124.212 176.787C124.843 176.439 125.392 175.973 125.881 175.419C125.578 172.453 124.48 172.123 122.586 174.428C122.571 173.395 123.026 172.603 123.941 171.973C123.793 171.379 123.695 170.794 123.617 170.239C124.859 172.862 126.092 172.882 127.345 170.279C127.032 169.32 126.417 168.744 125.48 168.52Z" fill="#A47678"/>
<path fill-rule="evenodd" clip-rule="evenodd" d="M132.384 171.59C131.362 171.686 130.328 171.702 129.302 171.54C128.456 172.775 127.689 174 127.071 175.251C127.139 174.465 127.187 173.65 127.134 172.816C128.334 169.945 130.087 169.52 132.384 171.59Z" fill="#D1929A"/>
<path fill-rule="evenodd" clip-rule="evenodd" d="M131.237 168.031C133.1 166.313 134.507 166.648 135.427 169.058C133.66 170.536 132.254 170.201 131.237 168.031Z" fill="#D2969C"/>
<path fill-rule="evenodd" clip-rule="evenodd" d="M125.48 168.52C126.417 168.744 127.032 169.32 127.345 170.279C126.092 172.882 124.859 172.862 123.617 170.239C123.797 169.68 123.978 169.12 124.188 168.541C124.623 168.415 125.061 168.418 125.48 168.52Z" fill="#D3989D"/>
<path fill-rule="evenodd" clip-rule="evenodd" d="M121.904 175.333C122.321 176.002 122.521 176.734 122.533 177.509C127.072 182.643 131.725 182.699 136.549 177.634C139.396 173.933 139.263 170.328 136.09 166.861C136.247 166.71 136.334 166.52 136.33 166.261C137.774 167.788 138.785 169.571 139.341 171.579C140.693 172.213 140.844 173.065 139.777 174.106C140.275 174.197 140.578 174.51 140.635 175.036C140.076 174.856 139.781 175.059 139.75 175.646C139.955 176.07 140.299 176.442 140.71 176.724C137.997 178.724 135.426 180.931 133.056 183.303C132.641 183.459 132.539 183.312 132.751 182.861C132.363 182.867 132.118 183.08 132.115 183.517C131.161 183.522 130.976 183.128 131.551 182.384C130.276 182.871 128.97 183.249 127.593 183.589C127.133 182.036 126.172 180.959 124.712 180.356C124.696 180.585 124.609 180.775 124.473 180.956C122.687 179.881 121.62 178.269 121.369 176.137C121.413 175.758 121.588 175.507 121.904 175.333Z" fill="#B3A89C"/>
<path fill-rule="evenodd" clip-rule="evenodd" d="M127.071 175.251C126.805 178.087 127.991 178.923 130.589 177.828C132.295 176.957 133.889 175.858 135.311 174.574C135.495 174.273 135.659 173.942 135.744 173.623C135.424 172.843 135.016 172.125 134.469 171.458C134.008 171.862 133.571 171.859 133.177 171.478C133.74 171.221 134.305 171.093 134.912 171.152C136.16 172.206 136.517 173.482 136.012 174.96C134.432 176.267 132.819 177.465 131.096 178.565C128.988 180.497 127.432 180.134 126.408 177.448C126.306 176.605 126.514 175.896 127.071 175.251Z" fill="#D0969B"/>
<path fill-rule="evenodd" clip-rule="evenodd" d="M132.384 171.59C132.638 171.328 132.926 171.303 133.177 171.478C133.571 171.859 134.008 171.862 134.469 171.458C135.016 172.124 135.424 172.843 135.744 173.623C135.63 173.963 135.495 174.273 135.311 174.574C133.889 175.858 132.295 176.957 130.589 177.828C127.991 178.923 126.805 178.087 127.071 175.251C127.689 174 128.456 172.775 129.302 171.54C130.328 171.702 131.362 171.686 132.384 171.59Z" fill="#E990A0"/>
<path fill-rule="evenodd" clip-rule="evenodd" d="M171.581 140.663C172.955 142.152 174.201 143.771 175.33 145.472C177.965 150.875 177.354 155.863 173.467 160.455C163.818 168.627 155.915 167.202 149.795 156.112C147.303 148.262 149.598 142.245 156.732 138.068C162.181 136.183 167.123 137.038 171.581 140.663Z" fill="#482B13"/>
<path fill-rule="evenodd" clip-rule="evenodd" d="M154.917 143.015C159.33 139.626 163.858 139.375 168.573 142.301C176.33 150.524 175.125 157.051 164.941 161.982C159.287 162.747 155.327 160.475 153.061 155.166C151.285 150.693 151.9 146.659 154.917 143.015Z" fill="#B4A394"/>
<path fill-rule="evenodd" clip-rule="evenodd" d="M156.432 144.58C160.746 141.303 164.884 141.495 168.815 145.178C170.884 147.928 171.266 150.882 169.891 154.004C167.233 158.358 163.46 159.958 158.582 158.754C153.52 154.632 152.794 149.914 156.432 144.58Z" fill="#907973"/>
<path fill-rule="evenodd" clip-rule="evenodd" d="M161.681 156.618C163.953 155.052 166.196 153.506 168.469 151.94C168.53 152.029 168.611 152.147 168.672 152.235C167.14 154.117 165.264 155.628 163.074 156.745C162.58 156.912 162.122 156.88 161.681 156.618Z" fill="#D3959B"/>
<path fill-rule="evenodd" clip-rule="evenodd" d="M164.589 145.047C166.118 144.297 167.11 144.788 167.543 146.49C167.381 146.95 167.169 147.4 166.916 147.792C166.081 148.411 165.344 148.353 164.628 147.63C164.177 146.723 164.154 145.869 164.589 145.047Z" fill="#D5959D"/>
<path fill-rule="evenodd" clip-rule="evenodd" d="M156.62 150.539C159.129 151.463 159.307 152.732 157.075 154.357C156.633 154.096 156.183 153.884 155.773 153.732C154.639 152.339 154.941 151.261 156.62 150.539Z" fill="#D2959C"/>
<path fill-rule="evenodd" clip-rule="evenodd" d="M167.729 148.971C168.626 149.831 168.88 150.831 168.469 151.94C168.063 151.351 167.656 150.761 167.25 150.171C166.278 150.972 165.6 150.873 165.256 149.805C164.064 149.844 162.948 149.614 161.916 149.064C160.92 150.967 160.115 152.957 159.52 155.063C159.894 156.11 160.597 156.626 161.681 156.618C161.338 156.942 160.902 157.068 160.444 157.036C159.77 156.5 159.283 155.792 159.022 154.972C159.693 153.292 160.015 151.548 159.988 149.74C161.513 148.037 163.238 147.761 165.145 149.012C166.027 148.839 166.902 148.845 167.729 148.971Z" fill="#D2949B"/>
<path fill-rule="evenodd" clip-rule="evenodd" d="M168.469 151.94C166.196 153.506 163.953 155.052 161.681 156.618C160.597 156.626 159.894 156.11 159.52 155.063C160.115 152.957 160.92 150.967 161.916 149.064C162.948 149.614 164.064 149.844 165.256 149.805C165.6 150.873 166.278 150.972 167.25 150.171C167.656 150.761 168.063 151.351 168.469 151.94Z" fill="#EA909E"/>
<path fill-rule="evenodd" clip-rule="evenodd" d="M160.012 144.722C159.891 145.936 160.371 146.823 161.444 147.432C163.223 146.728 163.454 145.611 162.189 144.091C162.979 144.417 163.799 144.722 164.589 145.047C164.154 145.869 164.177 146.723 164.628 147.63C165.344 148.353 166.081 148.411 166.916 147.792C167.18 148.175 167.465 148.588 167.729 148.971C166.902 148.845 166.027 148.839 165.145 149.012C163.238 147.761 161.513 148.037 159.988 149.74C160.015 151.548 159.693 153.292 159.022 154.972C159.283 155.792 159.77 156.5 160.444 157.036C160.902 157.068 161.338 156.942 161.681 156.618C162.122 156.88 162.58 156.912 163.074 156.745C165.264 155.628 167.14 154.117 168.672 152.235C168.875 152.53 169.079 152.825 169.282 153.12C167.168 154.663 164.943 156.11 162.687 157.447C162.023 157.557 161.368 157.617 160.703 157.727C159.756 156.858 158.868 155.948 157.979 155.038C157.466 154.609 157.189 154.713 157.14 155.399C156.586 154.911 156.121 154.362 155.773 153.732C156.183 153.884 156.633 154.096 157.075 154.357C159.307 152.732 159.129 151.463 156.62 150.539C155.944 149.874 155.744 149.142 155.991 148.363C156.945 150.315 158.03 150.437 159.276 148.708C158.797 146.56 157.828 146.227 156.378 147.661C156.348 146.986 156.588 146.386 157.097 145.861C157.802 146.506 158.328 146.448 158.684 145.637C159.997 147.037 160.145 146.936 159.127 145.332C159.422 145.129 159.717 144.926 160.012 144.722Z" fill="#A8787B"/>
<path fill-rule="evenodd" clip-rule="evenodd" d="M162.189 144.091C163.454 145.611 163.223 146.728 161.444 147.432C160.371 146.823 159.891 145.936 160.012 144.722C160.008 144.464 160.133 144.204 160.399 144.02C161.004 143.951 161.621 143.961 162.189 144.091Z" fill="#D5979C"/>
<path fill-rule="evenodd" clip-rule="evenodd" d="M155.991 148.363C156.137 148.132 156.233 147.892 156.378 147.661C157.828 146.227 158.797 146.56 159.276 148.708C158.03 150.437 156.945 150.315 155.991 148.363Z" fill="#D6959C"/>
<path fill-rule="evenodd" clip-rule="evenodd" d="M180.456 195.864C175.406 199.78 170.154 203.529 164.721 207.143C162.114 208.287 159.55 209.62 157.028 211.14C146.843 216.637 136.034 219.651 124.563 220.25C122.204 220.049 119.875 219.828 117.596 219.616C118.247 219.297 118.547 218.786 118.517 218.111C118.848 218.274 119.081 218.549 119.275 218.894C120.049 218.186 120.961 217.992 121.95 218.354C122.015 218.006 122.07 217.707 122.134 217.358C122.738 217.855 123.419 218.212 124.137 218.369C124.151 219.273 124.37 219.339 124.737 218.608C125.254 218.6 125.416 218.836 125.245 219.345C125.778 219.108 126.286 219.15 126.786 219.37C126.871 219.051 127.075 218.78 127.321 218.567C128.323 218.442 129.241 218.07 130.088 217.53C131.248 218.644 132.25 218.519 133.115 217.183C134.408 217.292 135.205 216.743 135.476 215.556C135.598 216.429 136.111 216.858 137.036 216.873C137.008 217.022 136.972 217.221 136.944 217.371C139.946 216.737 142.287 215.08 143.926 212.342C145.024 211.977 145.336 212.24 144.932 213.17C145.082 213.198 145.281 213.234 145.431 213.262C144.916 214.095 144.262 214.85 143.476 215.479C144.788 214.792 146.151 214.244 147.526 213.775C148.708 212.395 150.239 211.775 152.12 211.914C152.85 210.889 153.557 210.967 154.261 212.178C156.638 210.322 159.151 208.851 161.898 207.784C162.567 206.67 163.458 205.752 164.591 205.059C167.223 203.636 169.906 202.222 172.579 200.858C175.016 198.961 177.665 197.31 180.456 195.864Z" fill="#B5A392"/>
<path fill-rule="evenodd" clip-rule="evenodd" d="M204.397 175.016C204.346 175.574 204.084 176.015 203.623 176.42C203.534 175.785 203.775 175.314 204.397 175.016Z" fill="#937D67"/>
<path fill-rule="evenodd" clip-rule="evenodd" d="M137.51 221.982C138.309 221.562 139.102 221.45 139.89 221.646C139.092 222.066 138.298 222.178 137.51 221.982Z" fill="#998775"/>
<path fill-rule="evenodd" clip-rule="evenodd" d="M157.028 211.14C159.55 209.62 162.114 208.287 164.721 207.143C162.292 208.861 159.728 210.193 157.028 211.14Z" fill="#846D57"/>
<path fill-rule="evenodd" clip-rule="evenodd" d="M200.12 181.443C199.366 182.876 198.361 184.134 197.095 185.267C197.849 183.834 198.854 182.576 200.12 181.443Z" fill="#BDA693"/>
<path fill-rule="evenodd" clip-rule="evenodd" d="M154.522 216.346C155.398 215.786 156.317 215.414 157.289 215.309C156.444 215.978 155.505 216.321 154.522 216.346Z" fill="#B29C85"/>
<path fill-rule="evenodd" clip-rule="evenodd" d="M161.92 212.553C162.303 212.288 162.717 212.004 163.1 211.739C163.575 212.238 163.832 212.801 163.821 213.417C163.557 213.033 163.272 212.621 163.008 212.237C162.665 212.561 162.309 212.676 161.92 212.553Z" fill="#957F68"/>
<path fill-rule="evenodd" clip-rule="evenodd" d="M164.227 214.006C164.975 214.839 165.297 215.748 165.263 216.772C164.703 215.897 164.331 214.978 164.227 214.006Z" fill="#9E8A74"/>
<path fill-rule="evenodd" clip-rule="evenodd" d="M182.071 210.842C178.463 213.502 174.567 215.492 170.282 216.792C170.057 217.034 169.903 217.314 169.748 217.595C168.678 215.158 167.489 212.802 166.163 210.498C170.206 207.712 174.22 204.945 178.264 202.159C179.451 205.081 180.746 207.971 182.071 210.842Z" fill="#6D5B48"/>
<path fill-rule="evenodd" clip-rule="evenodd" d="M182.071 210.842C182.881 212.458 183.72 214.054 184.529 215.671C184.413 216.577 184.724 217.407 185.361 218.142C182.157 221.263 178.392 223.379 174.024 224.432C173.44 224.531 173.019 224.299 172.723 223.807C171.57 221.819 170.565 219.728 169.748 217.595C169.903 217.314 170.057 217.034 170.282 216.792C174.567 215.492 178.463 213.502 182.071 210.842Z" fill="#B5A697"/>
<path fill-rule="evenodd" clip-rule="evenodd" d="M167.517 221.307C168.542 222.731 169.32 224.239 169.772 225.841C168.746 224.417 167.968 222.909 167.517 221.307Z" fill="#887463"/>
<path fill-rule="evenodd" clip-rule="evenodd" d="M169.771 225.841C170.597 227.229 171.314 228.648 171.823 230.081C170.799 228.786 170.082 227.366 169.771 225.841Z" fill="#BFAA94"/>
<path fill-rule="evenodd" clip-rule="evenodd" d="M172.723 223.807C173.019 224.299 173.44 224.531 174.024 224.432C178.392 223.379 182.157 221.263 185.361 218.142C184.724 217.407 184.413 216.577 184.529 215.671C186.096 219.461 188.097 222.997 190.552 226.306C187.323 229.706 183.689 232.645 179.651 235.123C177.56 232.215 175.587 229.226 173.703 226.176C173.254 225.398 172.914 224.589 172.723 223.807Z" fill="#6D5B49"/>
<path fill-rule="evenodd" clip-rule="evenodd" d="M190.552 226.306C191.942 227.566 193.217 229.036 194.393 230.617C194.597 230.911 194.8 231.206 195.003 231.501C193.817 233.318 192.612 235.106 191.306 236.876C189.683 238.69 187.898 240.268 185.911 241.681C183.607 239.79 181.516 237.578 179.651 235.123C183.689 232.645 187.323 229.706 190.552 226.306Z" fill="#B5A697"/>
<path fill-rule="evenodd" clip-rule="evenodd" d="M178.325 239.516C180.096 240.948 181.73 242.562 183.219 244.406C184.919 245.8 186.727 247.033 188.591 248.096C187.685 247.982 186.912 248.123 186.313 248.58C186.458 248.349 186.554 248.109 186.7 247.878C184.735 246.101 182.604 244.525 180.367 243.11C180.551 242.809 180.615 242.46 180.55 242.114C179.655 241.383 178.916 240.5 178.325 239.516Z" fill="#E7D2C5"/>
<path fill-rule="evenodd" clip-rule="evenodd" d="M194.393 230.617C197.318 232.776 199.704 235.48 201.522 238.75C201.834 243.624 199.497 246.234 194.533 246.611C191.297 245.579 188.43 243.946 185.911 241.681C187.898 240.268 189.683 238.69 191.306 236.876C192.612 235.106 193.818 233.318 195.003 231.501C194.8 231.206 194.597 230.911 194.393 230.617Z" fill="#6D5B49"/>
</g>
<defs>
<clipPath id="clip0_5_2">
<rect width="157" height="246" fill="white" transform="translate(0 89.0905) rotate(-34.573)"/>
</clipPath>
</defs>
</svg>
